<?xml version="1.0" encoding="utf-8"?>
<!-- Generator: Adobe Illustrator 24.0.3, SVG Export Plug-In . SVG Version: 6.00 Build 0)  -->
<svg version="1.1" id="Layer_1" xmlns="http://www.w3.org/2000/svg" xmlns:xlink="http://www.w3.org/1999/xlink" x="0px" y="0px"
	 viewBox="0 0 356.7 112.8" style="enable-background:new 0 0 356.7 112.8;" xml:space="preserve">
<style type="text/css">
	.st0{fill:#FFFFFF;}
</style>
<g>
	<g>
		<path class="st0" d="M63.9,18.1H14.7c-1,0-1.2,0.3-1.2,1.2v73.9c0,0.9,0.4,1.4,1.4,1.4h48.9c1.1,0,1.1,0,1.1-1.1V19
			C64.8,18.2,64.8,18.1,63.9,18.1z M33.1,26.4c0-0.9,0.5-1.3,1.3-1.3h8.9c0.7,0.2,1.3,0.7,1.3,1.3v0.1c-0.2,0.5-0.8,1-1.5,1H36
			c-0.8,0-0.8,0-0.8,0.8v4.1c0,0.3,0,1.1-1,1.1c-1.1,0-1.2-0.7-1.2-1.1L33.1,26.4L33.1,26.4z M40.5,32.1c-0.8,0-0.8,0-0.8,0.8v0.6
			c-0.1,0.5-0.3,1.1-1.1,1.1c-1,0-1.2-0.5-1.2-1c-0.1-1-0.1-2,0-2.9c0.2-0.8,0.7-1.2,1.5-1.2h1.7c0.6,0,1.1,0,1.7,0.1l0,0
			c0.8,0,1.4,0.5,1.4,1.3v2.3c0,0.8-0.4,1.2-1.2,1.2s-1.2-0.4-1.2-1.2v-0.5C41.2,32.1,41.2,32.1,40.5,32.1z M25.8,36
			c0.2-0.2,0.5-0.3,0.9-0.3h12.7c4,0,8.1,0,12.2,0.1c0.3,0,0.7,0,1,0.3c0.4,0.2,0.5,0.8,0.3,1.2c-0.1,0.3-0.4,0.4-0.7,0.5L52,37.9
			H26.8c-0.4,0-1.1,0-1.2-0.8C25.5,36.6,25.6,36.3,25.8,36z M52.9,41.2c0,0.4-0.5,0.7-0.8,0.7c-0.8,0.2-1.5,0.2-2,0.2H28.3
			c-0.3,0-0.7-0.1-1-0.1c-0.3-0.1-0.6-0.1-0.9-0.1c-0.8,0-0.8-0.5-0.8-1c0-0.7,0.4-1,0.8-1.1h0.8h12.1c4.1,0,8.3,0,12.2-0.1
			c0.4,0,0.9,0.2,1.1,0.4C52.9,40.3,53.1,40.8,52.9,41.2z M57.1,59.5L54.7,62c-1,1.1-2,2.1-2.9,3.1c-0.5,0.5-1,1-1.4,1.5
			c-0.5,0.5-0.9,1-1.4,1.5c-0.8,0.8-1.6,1.6-2.3,2.4c-1.6,1.6-3.1,3.2-4.6,4.8c-1.2,1.3-2.5,2.7-3.7,4s-2.4,2.6-3.6,3.9
			c-0.8,1-1.7,2-2.7,2.9c-0.2,0.2-0.6,0.6-1.1,0.6c-0.2,0-0.4-0.1-0.7-0.3c-0.6-0.6-0.4-1.3-0.2-1.9c0.2-0.5,0.3-1,0.5-1.5
			s0.3-1.1,0.5-1.6c0.2-0.8,0.5-1.6,0.8-2.3c0.3-0.8,0.6-1.5,0.8-2.3l1.8-6.3c0-0.1,0-0.2,0.1-0.2v-0.1v-0.1
			c0.1-0.3,0.1-0.4,0.1-0.4s-0.1,0-0.4,0h-6.4c-0.6,0-1.1-0.2-1.3-0.5c-0.2-0.2-0.3-0.7,0-1.4c0.3-1,0.7-2,1-3s0.7-2,1-3
			c0.1-0.2,0.2-0.5,0.3-0.8c0.1-0.2,0.2-0.5,0.2-0.7c0.2-0.4,0.2-0.5,0.2-0.5s-0.1-0.1-0.6-0.1h-5.9c-0.7-0.1-1.1-0.3-1.4-0.7
			s-0.3-0.9-0.1-1.6c0.2-0.6,0.4-1.2,0.6-1.8s0.4-1.2,0.6-1.8l1.5-4.4c0.2-0.5,0.3-1,0.5-1.5s0.3-1.1,0.5-1.6
			c0.1-0.2,0.2-0.5,0.2-0.7c0.1-0.4,0.3-0.9,0.5-1.3c0.3-0.4,0.7-0.6,1.1-0.7l0.2-0.1h24.4c0.7,0,1.2,0.2,1.5,0.5
			c0.3,0.4,0.3,1,0,1.7c-0.2,0.7-0.5,1.5-0.7,2.2s-0.4,1.5-0.7,2.2c-0.4,1.4-0.9,2.7-1.4,4.1c-0.2,0.6-0.4,1.2-0.6,1.9
			c-0.1,0.2-0.2,0.5-0.2,0.8c2.2,0,4.4,0,6.5,0.2c0,0,0.1,0,0.2,0c0.2,0,0.4-0.1,0.6,0c0.4,0.1,0.7,0.4,0.8,0.8
			C57.4,58.7,57.4,59.2,57.1,59.5z"/>
		<path class="st0" d="M63.9,17.7H14.7c-1.2,0-1.7,0.5-1.7,1.7v73.9c0,1.2,0.7,1.8,1.8,1.8h48.9c1.4,0,1.6-0.2,1.6-1.6V19
			C65.3,17.9,65,17.7,63.9,17.7z M65,56.4c0,12.3,0,24.8,0,37.1c0,1.2-0.1,1.4-1.4,1.4c-16.3,0-32.6,0-48.9,0c-1,0-1.6-0.5-1.6-1.6
			c0-24.7,0-49.2,0-73.9c0-1.1,0.4-1.5,1.5-1.5c16.4,0,32.8,0,49.2,0c1,0,1.1,0.1,1.1,1.1C65,31.6,65,43.9,65,56.4z"/>
	</g>
	<path class="st0" d="M53.8,59.7C47,66.9,40.4,74,33.6,81.2c0,0-0.1,0-0.1-0.1c0.2-0.7,0.4-1.5,0.6-2.2c0.5-1.5,1-3,1.5-4.6
		c0.6-1.7,1.1-3.5,1.7-5.2c0.4-1,0-1.5-1-1.5c-2.2,0-4.3,0-6.5,0c-0.7,0-0.7-0.1-0.5-0.9c0.5-1.4,0.9-2.7,1.4-4.1
		c0.4-1.1,0.7-2.2,1.1-3.3c0.1-0.2,0.1-0.5,0.2-0.7c0.2-1-0.4-1.4-1.2-1.4c-2,0-4.1,0-6,0c-0.2,0-0.5,0-0.9,0
		c0.5-1.4,0.9-2.6,1.2-3.8c0.5-1.5,1-3.1,1.5-4.6c0.2-1,0.6-1.9,1-2.8c0-0.1,0.2-0.2,0.4-0.2c0.2,0,0.4,0,0.6,0c7,0,14.1,0,21.2,0
		c1.1,0,1.1,0,0.7,1c-0.7,2.1-1.5,4.3-2.1,6.4c-0.5,1.6-1,3.2-1.5,4.8c-0.1,0.6,0.5,1.2,1.2,1.2c1,0,2,0,2.8,0c1,0,2,0,3,0
		C53.7,59.7,53.7,59.7,53.8,59.7z"/>
	<path class="st0" d="M109.6,19.6c-5.1-0.2-10.1-0.2-15.2,0c-2.5,0.1-4.2,1.1-4.2,4.2c0.1,4.3,0,8.5,0.1,12.8c0,1.4,0.5,2.8,1.2,3.8
		c5.1,6.3,10.2,12.5,15.4,18.6c1.2,1.4,1.9,2.8,1.7,4.7c-0.1,3.9,0,7.9,0,12c-4.4,0-8.8,0-13.2,0c0-3.6,0-6.9,0-10.4
		c0-4.7,0-4.7-4.8-4.2c0,0,0,0-0.2,0.1c0,5.6-0.1,11,0.1,16.4c0,0.9,1.2,1.9,2.2,2.3c0.7,0.4,1.9,0.4,2.8,0.4c4.2,0,8.4,0,12.6,0
		c0.9,0,1.9-0.1,2.8-0.4c1.9-0.4,2.8-1.7,2.8-3.5c0-5.1,0-10.2,0-15.4c0-0.6-0.1-1.4-0.5-1.9c-1.2-1.7-2.5-3.6-3.8-5.2
		c-4.1-4.9-8.3-9.9-12.3-14.8c-0.7-1-1.5-2.2-1.6-3.3c-0.2-3.5-0.1-6.9-0.1-10.4c0-1,0.2-1.5,1.4-1.5c3.5,0,6.9,0,10.4,0
		c1.1,0,1.5,0.4,1.5,1.5c0,3.1,0,6,0,9c0,3.6-0.5,3.5,3.5,3.5c1.2,0.1,1.7-0.4,1.7-1.7c-0.1-4.1-0.1-8.1,0-12.2
		C114,20.9,112.2,19.8,109.6,19.6z"/>
	<path class="st0" d="M333,43c-0.9,0-1.7-0.1-2.5,0c-2.2,0.1-4.3,0.5-6.4,0.5c-2.3,0-4.7-0.4-7-0.5c-0.5,0-1,0.1-1.5,0.4
		c-3,1.2-4.1,3.8-4.2,6.8c-0.1,7.5-0.1,14.9,0,22.5c0.1,4.2,2.7,7.6,7.3,7.9c2.6,0.1,5.2,0.1,7.8,0.1c1,0,1.5,0.2,1.5,1.5
		c0,2.7,0,5.4,0,8.3c-3.7,0-7.3,0-11.1,0c0-1.2,0.1-2.5,0-3.6c0-0.5-0.5-1.1-0.9-1.2c-3.2-0.7-4.1,0-4.1,3.2c0,0.5,0,1.1,0,1.7
		c0.1,2.6,1.9,4.6,4.4,4.4c4.1-0.1,8.1-0.1,12.1,0c2.8,0.1,4.7-1.6,4.7-4.7c0-15.2,0-30.3,0-45.5C333.1,44.2,333,43.7,333,43z
		 M327.8,75.9c-3.1,0-6,0-9,0c-1.2,0-2.6-1.7-2.6-3.3c0-7.3-0.1-14.6,0-21.8c0.1-1.7,1.6-3.7,3.7-3.6c2.2,0.1,4.6,0,6.8,0.1
		c0.4,0.1,1.1,0.7,1.1,1.1C327.8,57.5,327.8,66.6,327.8,75.9z"/>
	<path class="st0" d="M142,42.7c-0.9-0.1-1.7-0.2-2.5-0.1c-2.5,0.2-5.1,0.7-7.5,0.7c-2.2,0-4.6-0.4-6.8-0.6
		c-1.5-0.1-1.9,0.4-1.9,1.9c0,8.1,0,16.2,0,24.3c0,7.5,0,15.1,0,22.6c0,3.6,0,3.6,3.6,3.5c1.2-0.1,1.6-0.5,1.6-1.7
		c0-3.5,0-6.9,0-10.4c0-2.2,0-2.2,2.2-2.2c1.7,0,3.5,0.1,5.2,0c1.5-0.1,3.1-0.2,4.4-0.9c3.5-1.5,4.6-4.3,4.6-7.8c0-5.7,0-11.3,0-17
		c0-3.1,0-6-0.1-9.1C144.9,43.9,143.7,43,142,42.7z M139.8,72.2c0,2.1-1.5,3.8-3.7,3.7c-2.5-0.1-4.9,0-7.5,0c0-0.6-0.1-1.1,0-1.6
		c0-8.4,0-16.7,0-24.9c0-1.4,0.2-2,1.7-2c2.7,0,5.4-0.1,8.1-0.2c1.1,0,1.4,0.5,1.4,1.5C139.8,56.5,139.7,64.3,139.8,72.2z"/>
	<path class="st0" d="M255.6,42.8c-3.2,0-6.4,0.4-9.6,0.5c-1.2,0.1-2.5,0.2-3.7,0.1c-1.7-0.1-3.3-0.6-5.4-1c0,1.4,0,2,0,2.7
		c0,15.5,0,31.1,0,46.6c0,3.5-0.6,3,3.1,3.1c1.4,0.1,1.9-0.5,1.9-1.9c0-3.5,0-6.8,0-10.2c0-2.1,0.1-2.2,2.2-2.2
		c2.7-0.1,5.4,0,8.1-0.4c3.3-0.4,5.9-3.3,5.9-6.7c0.1-7.5,0.1-14.9,0.1-22.3c0-1.9,0-3.8-0.1-5.8C258.1,43.9,257.1,42.8,255.6,42.8z
		 M253.3,72.3c0,2.3-1.2,3.6-3.5,3.6c-2.6,0-5.2,0-7.8,0c0-0.7-0.1-1.4-0.2-2.1c0-8,0-15.9,0-23.9c0-2.3,0-2.3,2.3-2.5
		c2.6-0.1,5.1-0.1,7.6-0.2c1.1-0.1,1.5,0.4,1.5,1.4C253.3,56.5,253.3,64.4,253.3,72.3z"/>
	<path class="st0" d="M219.9,60.6c-0.2-0.5-0.1-1.4,0.1-1.7c2.5-3.7,4.8-7.4,7.3-11.1c1-1.6,1.9-3.1,3.1-4.9c-1.6,0-2.6,0.1-3.7,0
		c-1.4-0.1-2.1,0.5-2.8,1.6c-2.7,4.4-5.6,8.8-8.3,13.2c-0.1-0.1-0.2-0.1-0.2,0c0-0.7-0.1-1.4-0.1-2.1c0-10.9,0-21.8,0-32.7
		c0-0.5,0-1,0-1.5c0-1.2-0.4-1.9-1.7-1.7c-0.4,0-0.6,0-1,0c-2.5,0-2.5,0-2.5,2.3c0,18.5,0,37.1,0,55.6c0,3.2-0.6,3.1,3.2,3.1
		c1.4,0,1.9-0.4,1.9-1.9c0-4.9,0-9.9,0-14.8c0-0.6,0.1-1.2,0.2-1.9c0.5,0.2,0.5,0.5,0.6,0.6c3,5.6,5.9,11.1,9,16.7
		c0.4,0.6,1.4,1,2.1,1.2c0.7,0.1,1.6,0,2.5,0c1.1-0.1,1.5-0.7,0.9-1.7C226.9,72.8,223.3,66.8,219.9,60.6z"/>
	<path class="st0" d="M171,42.7c-4.6,0-9.3,0-13.8,0c-1.5,0-2.7,0.6-3.1,2c-0.4,1.7-0.6,3.6-0.6,5.4c0,3.7,0,3.7,3.7,3.5
		c1,0,1.4-0.4,1.4-1.4c-0.1-1.4-0.1-2.7,0-4.1c0-0.4,0.6-1,0.9-1c3.3,0,6.7,0,10.1,0c0,3.8,0,7.4,0,11.2c-3.9,0-7.8-0.2-11.5-0.2
		c-3.7,0.2-4.8,1.4-4.8,4.6c0,4.6-0.1,9.1,0,13.7c0,3.1,1.5,4.6,4.6,4.3c3.3-0.2,6.8-0.9,10.1-1.2c0.5,0,1.2-0.2,1.4,0
		c1,1.7,2.6,0.7,3.9,1c1.1,0.1,1.5-0.5,1.5-1.6c0-10.7-0.1-21.6,0-32.3C174.7,44.7,173,42.7,171,42.7z M169.5,75.9
		c-1.4,0-2.7,0-3.9,0.2c-1.4,0-2.6,0-3.9,0c-1.2-0.1-2.7,0.2-3.3-0.4c-0.6-0.5-0.4-2.1-0.4-3.2c0-2.8,0-5.7,0-8.5
		c0-1,0.2-1.5,1.2-1.5c3.5,0,6.8,0,10.4,0C169.5,67,169.5,71.3,169.5,75.9z"/>
	<path class="st0" d="M301.9,42.8c-1.4,0-2.7,0-4.2,0c0,11.1,0,22,0,32.9c-4.1,0-7.8,0-11.7,0c0-11,0-21.8,0-32.8
		c-1.6,0-3.2,0-4.9,0c0,0.5,0,0.7-0.1,0.9c0,10.9,0,21.8,0,32.8c0,2.3,1.7,4.2,4.1,4.1c3.7-0.2,7.3-0.7,10.9-1.1
		c0.7-0.1,1.2-0.1,2.1,0.4c1,0.6,2.6,0.4,3.9,0.2c0.4,0,0.9-1.4,0.9-2.1c0-11.1,0-22.2,0-33.3c0-0.4,0.1-0.7,0-1.1
		C302.6,43.3,302.3,42.8,301.9,42.8z"/>
	<path class="st0" d="M269.3,19.5c-2.1,0-2.2,0.1-2.2,2.1c0,4.2,0,8.5,0,12.7c0,14.7,0,29.4,0,44c0,2,0.1,2.2,2.1,2.2
		c0.4,0,0.6,0,0.9,0c1.6,0.1,2.1-0.4,2.1-2.1c0-9.4,0-18.9,0-28.3c0-9.3,0-18.5,0-27.9C272.2,19,272.4,19.5,269.3,19.5z"/>
	<path class="st0" d="M199.8,42.7c-2.7,0.1-5.3,0.4-7.9,0.6c-1,0.1-2.1,0.2-3.1,0.1c-1.6-0.2-3.3-0.6-5.3-1c0,1.4,0,2-0.1,2.5
		c0,7.2,0,14.3,0,21.5c0,4.1,0.1,8.1,0,12.2c0,1.6,0.6,2.2,2.1,2c0.4,0,0.6,0,0.9,0c2,0,2.2-0.1,2.2-2.1c0-8.4,0-16.8,0-25.2
		c0-1.5-0.1-3,0-4.4c0.1-0.5,0.7-1.2,1.1-1.2c2.2-0.2,4.6-0.2,6.9-0.5c1.1,0,1.6,0.4,1.6,1.6c0,2.1,0,4.2,0,6.4c1.5,0,2.8,0.1,4.1,0
		c0.4,0,0.9-0.6,0.9-1c0.1-2.7,0.2-5.4,0-8.1C202.8,43.9,202,42.6,199.8,42.7z"/>
	<path class="st0" d="M51,59.2c-0.9,0-1.9,0-2.8,0c-0.7,0-1.4-0.6-1.2-1.2c0.5-1.6,1-3.2,1.5-4.8c0.6-2.1,1.4-4.3,2.1-6.4
		c0.4-1,0.4-1-0.7-1c-7.2,0-14.2,0-21.2,0c-0.2,0-0.4,0-0.6,0c-0.1,0-0.4,0.1-0.4,0.2c-0.4,1-0.7,1.9-1,2.8c-0.5,1.5-1,3.1-1.5,4.6
		c-0.4,1.2-0.7,2.5-1.2,3.8c0.4,0,0.6,0,0.9,0c2,0,4.1,0,6,0c0.9,0,1.5,0.4,1.2,1.4c-0.1,0.2-0.1,0.5-0.2,0.7
		c-0.4,1.1-0.7,2.2-1.1,3.3c-0.5,1.4-0.9,2.7-1.4,4.1c-0.2,0.7-0.2,0.9,0.5,0.9c2.2,0,4.3,0,6.5,0c1,0,1.4,0.5,1,1.5
		c-0.6,1.7-1.1,3.5-1.7,5.2c-0.5,1.6-1,3.1-1.5,4.6c-0.2,0.7-0.4,1.5-0.6,2.2c0,0.1,0.1,0.1,0.1,0.1C40.4,74,47,66.9,53.8,59.7
		c-0.1,0-0.1,0,0.1-0.5C52.9,59.2,52,59.2,51,59.2z"/>
</g>
<g>
	<path class="st0" d="M340.5,46.8c-0.7-0.4-1.3-1-1.7-1.7s-0.6-1.5-0.6-2.3s0.2-1.6,0.6-2.3c0.4-0.7,1-1.3,1.7-1.7
		c0.7-0.4,1.5-0.6,2.3-0.6c0.8,0,1.6,0.2,2.3,0.6c0.7,0.4,1.3,1,1.7,1.7c0.4,0.7,0.6,1.5,0.6,2.3s-0.2,1.6-0.6,2.3s-1,1.2-1.7,1.7
		c-0.7,0.4-1.5,0.6-2.3,0.6C342,47.4,341.2,47.2,340.5,46.8z M345.4,45.6c0.7-0.7,1-1.6,1-2.7c0-0.7-0.2-1.4-0.5-2s-0.7-1-1.3-1.3
		s-1.2-0.5-1.9-0.5c-1.1,0-2,0.3-2.7,1c-0.7,0.7-1,1.6-1,2.7s0.3,2,1,2.7s1.6,1,2.7,1C343.9,46.6,344.8,46.2,345.4,45.6z
		 M344.5,45.1C344.5,45.2,344.5,45.2,344.5,45.1l-0.7,0c0,0-0.1,0-0.1-0.1l-0.7-2c0,0,0,0,0-0.1s0,0-0.1,0h-0.9c0,0-0.1,0-0.1,0.1
		V45c0,0.1,0,0.1-0.1,0.1h-0.6c-0.1,0-0.1,0-0.1-0.1v-4.4c0-0.1,0-0.1,0.1-0.1h2c0.5,0,0.9,0.1,1.1,0.3s0.4,0.5,0.4,0.9
		c0,0.6-0.3,1-0.9,1.2c0,0,0,0,0,0.1l0.8,2C344.5,45.1,344.5,45.1,344.5,45.1z M343.8,41.8c0-0.4-0.3-0.6-0.9-0.6h-1c0,0,0,0,0,0
		c0,0,0,0,0,0s0,0,0,0.1v1c0,0.1,0,0.1,0.1,0.1h1.1C343.5,42.4,343.8,42.2,343.8,41.8z"/>
</g>
</svg>
