<svg xmlns="http://www.w3.org/2000/svg" xmlns:xlink="http://www.w3.org/1999/xlink" id="Ebene_1" x="0" y="0" version="1.1" viewBox="0 0 1366 323" xml:space="preserve" style="enable-background:new 0 0 1366 323"><style type="text/css">.st0{fill:#231f20}.st1{fill-rule:evenodd;clip-rule:evenodd;fill:#fcc414}.st2{fill:#fff}.st3,.st4{fill-rule:evenodd;clip-rule:evenodd}.st4{fill:#fff}</style><path d="M518.6,75.5V236c0,3.7-3.1,6.6-6.9,6.6l-35.9-0.3v-62.7c0-3.7-3.1-6.6-6.9-6.6h-57.4c-3.8,0-6.9,3-6.9,6.6	l-0.2,62.7c-34.2,0-35.7,0.3-35.7,0.3c-3.8,0-6.9-3-6.9-6.6V75.5c0-3.7,3.1-6.6,6.9-6.6l35.7,0.2c0,60.6,0.2,61.9,0.2,61.9	c0,3.7,3.1,6.6,6.9,6.6h57.4c3.8,0,6.9-3,6.9-6.6l-0.1-62c40.1,0,36-0.1,36-0.1C515.5,68.9,518.6,71.9,518.6,75.5z M562.7,89h25.7	c3.4,0,6.1,2.6,6.1,5.9V237c0,3.2-2.7,5.9-6.1,5.9h-25.7c-3.4,0-6.1-2.6-6.1-5.9V94.9C556.6,91.6,559.3,89,562.7,89z M774.7,96.8	l-51.6,144c-0.8,2.4-3.2,4-5.8,4H678c-2.6,0-4.9-1.6-5.8-3.9l-51.8-144c-1.4-3.8,1.6-7.8,5.8-7.8h26c2.6,0,4.9,1.6,5.8,4l33.9,97.3	c1.9,5.3,9.7,5.3,11.5,0L737.2,93c0.8-2.4,3.2-4,5.8-4h26C773.1,89,776.1,93,774.7,96.8z M907.2,219.5V237c0,3.2-2.7,5.9-6.1,5.9	h-94.4c-3.4,0-6.1-2.6-6.1-5.9V94.9c0-3.2,2.7-5.9,6.1-5.9H900c3.4,0,6.1,2.6,6.1,5.9v17.5c0,3.2-2.7,5.9-6.1,5.9h-55.4	c-3.4,0-6.1,2.6-6.1,5.9c0,0-0.1-0.1-0.1,26.9c0,0-0.8,0.1,56.8,0.1v28.7c-59.4,0-57,0.2-57,0.2c0,28.2,0.2,27.8,0.2,27.8	c0,3.2,2.7,5.9,6.1,5.9H901C904.5,213.7,907.2,216.3,907.2,219.5z M1136.2,75.5V236c0,3.7-3.1,6.6-6.9,6.6h-29.1	c-3.8,0-6.9-3-6.9-6.6l-0.4-102c0-6.5-38.4,48.2-38.4,48.2c-1.32,1.83-3.44,2.91-5.7,2.9h-14.2c-2.3,0-4.4-1.1-5.7-2.9	c0,0-38.1-55.1-38.1-48.5L991,236c0,3.7-3.1,6.6-6.9,6.6H955c-3.8,0-6.9-3-6.9-6.6V75.5c0-3.7,3.1-6.6,6.9-6.6h38.9	c2.3,0,4.4,1.1,5.7,2.9l36.7,53c2.7,3.9,8.7,3.9,11.4,0l36.7-53c1.3-1.8,3.4-2.9,5.7-2.9h38.9C1133.1,68.9,1136.2,71.9,1136.2,75.5z M1341.1,196.6c-4.3,10.2-10.4,19-18.1,26.3c-2.6,2.4-2.7,6.4-0.3,9.1l23.7,25.1c-43.4,0-45.8,0.3-45.8,0.3c-2,0-3.9-0.8-5.2-2.3	l-7.8-8.8c-1.7-1.9-4.3-2.7-6.9-2.1c-7.5,1.6-15.6,2.4-24.4,2.4c-20,0-36.9-3.9-50.9-11.8s-24.4-18.6-31.4-32.3	s-10.5-29.1-10.5-46.4c0-17,3.5-32.2,10.5-45.8s17.4-24.4,31.4-32.4s30.9-12,50.9-12c19.7,0,36.5,4,50.4,12s24.4,18.9,31.5,32.6	s10.6,28.9,10.6,45.7C1348.8,170.8,1346.2,184.3,1341.1,196.6L1341.1,196.6z M1219.9,196.5c8.4,10.2,20.5,15.2,36.4,15.2h0.5	l-11.1-12.4c-3.8-4.3-0.7-11,5.2-11h29.4c2,0,3.9,0.8,5.2,2.3c3.1,3.4,7.7,6.3,10.1,2.4c1.9-3.3,4.7-10.3,6-14.2	c2.4-7.1,3.6-14.9,3.6-23.5c0-10.5-1.9-19.9-5.7-28.2s-9.4-14.7-16.8-19.5c-7.4-4.7-16.1-7.1-26.3-7.1c-15.7,0-27.8,5.1-36.3,15.4	c-8.5,10.2-12.7,23.6-12.7,40.1C1207.3,172.8,1211.5,186.3,1219.9,196.5L1219.9,196.5z" class="st0"/><g><circle cx="160.7" cy="161" r="131.8" class="st1"/><path d="M160.6,316C75.4,316,6.1,246.7,6.1,161.5S75.4,7,160.6,7s154.5,69.3,154.5,154.5S245.8,316,160.6,316z M160.6,20.1c-78,0-141.4,63.5-141.4,141.4s63.4,141.4,141.4,141.4S302,239.5,302,161.5S238.6,20.1,160.6,20.1z" class="st2"/><path d="M182.1,123.9c-8.7-4-13.6-13.4-12.1-22.8C178.6,105.1,183.6,114.5,182.1,123.9z" class="st3"/><path d="M132,203.4c1.4,4.6,3.6,9,6.6,12.8h44.9c3-3.8,5.2-8.2,6.6-12.8H132z M226.8,157.2c-1.4,1.3-1.5,3.6-0.2,5 l0.5,0.5c20.4-17.4,32.7-30.9,26.6-41.5c-6.7-9.4-35.1-4.9-69.9,10.7c1.8-3.5,2.6-7.4,2.6-11.3c0-1.4-0.1-2.9-0.4-4.3 c-0.8-5-3.2-9.8-7-13.6c-2.1-2.1-4.5-3.8-7-5l0.1-0.3l2.7-5.8c0.4-0.9,0-2-0.9-2.5c-0.9-0.4-2,0-2.5,0.9l-2.9,6.3 c-4.8-1.5-10-1.5-14.8,0l-2.9-6.3c-0.4-0.9-1.5-1.3-2.5-0.9c-0.9,0.4-1.3,1.5-0.9,2.5l2.6,5.6l0.2,0.4c-2.6,1.2-4.9,2.9-7,5 c-5.1,5.1-7.5,11.7-7.4,18.4c0.1,3.6,0.9,7.2,2.5,10.5c-9-4-59-24.7-69-10.6c-9.1,12.8,18.9,35.3,26.4,41.7l0.5-0.5 c1.3-1.4,1.2-3.7-0.2-5c-3.7-3.5-9.4-9.2-13.5-14.7c-5.3-7.3-5.4-11.6-2.9-14c8-7.5,37.5,2.4,46.6,5.9c8.8,3.4,18.3,7.7,28,12.8 c-46.8,27.1-78.6,59.5-71.1,72.5c4.7,8.1,24.3,7.1,49.4-1.8l-0.9-1.5c-0.9-1.4-2.5-2.1-4.1-1.6c-17.4,5.3-28.3,7.8-32.1,2.2 c-5.2-9.1,21.4-40.4,62.7-64.2l3.1-1.8c1,0.6,2.1,1.2,3.1,1.8c41.3,23.8,67.9,55.1,62.7,64.2c-3.8,5.6-14.6,3.1-32.1-2.2 c-1.6-0.5-3.2,0.2-4.1,1.6l-0.9,1.5c25.1,8.9,44.7,9.9,49.4,1.8c7.5-13-24.3-45.4-71.1-72.5c32.9-17.4,62.6-25.1,73.5-19.6 C251.7,132.5,234.6,149.8,226.8,157.2L226.8,157.2z M140,123.9c-1.5-9.4,3.5-18.8,12.1-22.8C153.6,110.5,148.6,119.9,140,123.9z M182.1,123.9c-8.7-4-13.6-13.4-12.1-22.8C178.6,105.1,183.6,114.5,182.1,123.9z M189.6,177.3c-8.6-6.3-18.2-12.6-28.5-18.6 c-10.3,6-19.9,12.3-28.5,18.6c-1.7,4.9-2.5,10.2-2.3,15.4h61.6C192.1,187.5,191.3,182.2,189.6,177.3L189.6,177.3z M148.4,227 c3.9,4,6.9,7.6,12.7,18.1c5.8-10.4,8.8-14,12.7-18.1H148.4z" class="st3"/><path d="M182.1,123.9c-8.7-4-13.6-13.4-12.1-22.8C178.6,105.1,183.6,114.5,182.1,123.9z M140,123.9 c-1.5-9.4,3.5-18.8,12.1-22.8C153.6,110.5,148.6,119.9,140,123.9z M96.9,160.4c0,0,0.7-1.8-1-3.4c-7.8-7.3-24.9-24.6-15.1-29.6 c10.9-5.5,40.6,2.4,73.5,19.7c-16.6,9.6-28,17.6-40,27.3C101,164.6,98.6,162.5,96.9,160.4L96.9,160.4z M227.1,217.2 c-3.8,5.6-14.6,3.1-32.1-2.2c-0.8-0.2-1.6-0.2-2.3,0.1c5.3-7.7,6.5-22,4.6-32.3v-0.2v-0.1c-0.6-4.1-1.5-7.3-2.5-8.7 C218,192.4,230.9,210.6,227.1,217.2L227.1,217.2z M208.7,174.6c-11.7-9.9-23.7-17.8-40.3-27.4c32.9-17.4,62.6-25.1,73.5-19.6 c9.8,5-7.4,22.3-15.1,29.6c-1.4,1.3-1,1.9-1,3.4C224.1,162.7,222,164.8,208.7,174.6L208.7,174.6z M127.9,173.5 c-1,1.4-1.9,4.6-2.5,8.7v0.3c-1.9,10.4-0.7,24.6,4.6,32.3c-0.7-0.3-1.5-0.3-2.3-0.1c-17.4,5.3-28.3,7.8-32.1,2.2 C91.8,210.4,104.7,192.2,127.9,173.5z" class="st4"/></g></svg>